<?xml version="1.0" encoding="UTF-8"?>
<svg id="Camada_1" data-name="Camada 1" xmlns="http://www.w3.org/2000/svg" viewBox="0 0 2371.32 999.67">
  <defs>
    <style>
      .cls-1 {
        fill: #3ba8cd;
      }

      .cls-2 {
        fill: #63b22f;
      }
    </style>
  </defs>
  <path class="cls-2" d="M2287.99,422.49c-1.32,15.7-8.8,26.78-15.55,39.69-20.37,34.99-45.91,66.44-72.34,96.9-108.3,120.1-240.94,215.75-385.22,289.07-194.67,97.03-411.05,146.81-628.44,150.84-337.19,9.62-657.79-83.14-910.86-312.78-70.43-64.41-136.51-136.24-179.91-221.91-5.72-13.72-12.36-25.73-12.36-41.83.05-2.89,2.43-5.19,5.32-5.14,3.31.03,4.57,2.52,5.48,5.14,9.46,20.96,29.92,41.22,46.59,58.38,55.27,54.6,117.71,102.12,181.73,145.52,171.1,114.21,361.21,193.36,559.77,243.45,299.76,76.26,623.99,50.87,909.97-70.69,143.39-61.36,278.98-146.5,391.34-255.83,34.61-36.39,75.78-73.18,93.67-120.81,0,0,.26-1.39.26-1.39.55-2.89,3.34-4.78,6.23-4.23,2.68.51,4.51,2.96,4.31,5.62h0Z"/>
  <g>
    <path class="cls-1" d="M222.52,226.13H91.74s-24.95,60.36-24.95,60.36H0S125.55,4.82,125.55,4.82h64.38s125.94,281.67,125.94,281.67h-68.41s-24.95-60.36-24.95-60.36ZM201.99,176.64l-44.66-107.84-44.66,107.84h89.33Z"/>
    <path class="cls-1" d="M581.45,286.49l-.4-169-82.89,139.22h-29.38s-82.49-135.61-82.49-135.61v165.38s-61.16,0-61.16,0V4.82s53.92,0,53.92,0l105.42,175.04L588.3,4.83h53.52s.8,281.67.8,281.67h-61.16Z"/>
    <path class="cls-1" d="M689.3,4.83h65.18s0,281.67,0,281.67h-65.18s0-281.67,0-281.67Z"/>
    <path class="cls-1" d="M991.49,141.24h59.56s0,114.28,0,114.28c-30.99,23.33-73.64,35.81-113.88,35.81-88.52,0-153.71-60.76-153.71-145.66C783.46,60.76,848.65,0,938.38,0c49.49,0,90.54,16.9,117.9,48.69l-41.85,38.63c-20.52-21.73-44.27-31.79-72.83-31.79-54.72,0-92.15,36.61-92.15,90.13,0,52.71,37.42,90.13,91.34,90.13,17.7,0,34.2-3.22,50.7-12.07v-82.49Z"/>
    <path class="cls-1" d="M1073.59,145.66C1073.59,61.97,1138.77,0,1227.71,0c88.52,0,154.11,61.56,154.11,145.66,0,84.1-65.59,145.66-154.11,145.66-88.93,0-154.11-61.97-154.11-145.66ZM1315.82,145.67c0-53.52-37.82-90.13-88.12-90.13-50.3,0-88.12,36.61-88.12,90.13,0,53.52,37.82,90.13,88.12,90.13,50.3,0,88.12-36.61,88.12-90.13Z"/>
    <path class="cls-1" d="M1760.88,286.5l-.4-169-82.9,139.22h-29.37s-82.49-135.61-82.49-135.61v165.38s-61.16,0-61.16,0V4.83s53.92,0,53.92,0l105.43,175.04L1767.72,4.84h53.52s.8,281.67.8,281.67h-61.16Z"/>
    <path class="cls-1" d="M2086.82,234.2v52.31s-218.09,0-218.09,0V4.84s212.86,0,212.86,0v52.31s-148.08,0-148.08,0v61.16s130.77,0,130.77,0v50.7s-130.77,0-130.77,0v65.19s153.31,0,153.31,0Z"/>
    <path class="cls-1" d="M2116.2,162.57V4.84s65.19,0,65.19,0v155.32c0,53.52,23.33,75.65,62.77,75.65,39.83,0,62.77-22.13,62.77-75.65V4.84s64.38,0,64.38,0v157.73c0,82.89-47.49,128.76-127.56,128.76-80.08,0-127.56-45.87-127.56-128.76Z"/>
  </g>
  <g>
    <path class="cls-1" d="M585.01,498.18c0,30.12-22.59,48.85-58.69,48.85h-27.22v37.26h-31.28v-135.15h58.5c36.1,0,58.69,18.73,58.69,49.04ZM553.35,498.18c0-14.87-9.65-23.55-28.77-23.55h-25.49v46.92h25.49c19.11,0,28.77-8.69,28.77-23.36Z"/>
    <path class="cls-1" d="M769.78,559.19v25.1h-104.65v-135.15h102.14v25.1h-71.05v29.35h62.75v24.33h-62.75v31.28h73.56Z"/>
    <path class="cls-1" d="M880.59,474.63h-43.25v-25.49h117.77v25.49h-43.25v109.67h-31.28v-109.67Z"/>
    <path class="cls-1" d="M1173.67,474.24v35.72h62.56v25.1h-62.56v49.23h-31.28v-135.15h102.14v25.1h-70.86Z"/>
    <path class="cls-1" d="M1428.33,559.19v25.1h-104.65v-135.15h102.14v25.1h-71.05v29.35h62.75v24.33h-62.75v31.28h73.56Z"/>
    <path class="cls-1" d="M1511.15,449.14h31.28v109.67h67.77v25.49h-99.05v-135.15Z"/>
    <path class="cls-1" d="M1685.68,449.14h31.28v135.15h-31.28v-135.15Z"/>
    <path class="cls-1" d="M1916.4,558.8v25.49h-118.16v-20.27l74.14-89.39h-72.6v-25.49h113.72v20.27l-73.95,89.39h76.84Z"/>
  </g>
</svg>